<svg aria-hidden="true" style="position: absolute; width: 0; height: 0; overflow: hidden;" version="1.1" xmlns="http://www.w3.org/2000/svg" xmlns:xlink="http://www.w3.org/1999/xlink">
<defs>
<symbol id="icon-Group" viewBox="0 0 36 32">
<path d="M1.199 4.002c0-0.637 0.253-1.247 0.703-1.697s1.061-0.703 1.697-0.703h28.8c0.637 0 1.247 0.253 1.697 0.703s0.703 1.061 0.703 1.697-0.253 1.247-0.703 1.697c-0.45 0.45-1.060 0.703-1.697 0.703h-28.8c-0.637 0-1.247-0.253-1.697-0.703s-0.703-1.061-0.703-1.697z"></path>
<path d="M1.199 16.002c0-0.637 0.253-1.247 0.703-1.697s1.061-0.703 1.697-0.703h28.8c0.637 0 1.247 0.253 1.697 0.703s0.703 1.061 0.703 1.697-0.253 1.247-0.703 1.697c-0.45 0.45-1.060 0.703-1.697 0.703h-28.8c-0.637 0-1.247-0.253-1.697-0.703s-0.703-1.061-0.703-1.697z"></path>
<path d="M1.199 28.002c0-0.637 0.253-1.247 0.703-1.697s1.061-0.703 1.697-0.703h28.8c0.637 0 1.247 0.253 1.697 0.703s0.703 1.060 0.703 1.697c0 0.636-0.253 1.247-0.703 1.697s-1.060 0.703-1.697 0.703h-28.8c-0.637 0-1.247-0.253-1.697-0.703s-0.703-1.061-0.703-1.697z"></path>
</symbol>
</defs>
</svg>
